<mxfile host="Electron" agent="Mozilla/5.0 (Windows NT 10.0; Win64; x64) AppleWebKit/537.36 (KHTML, like Gecko) draw.io/24.7.5 Chrome/126.0.6478.183 Electron/31.3.0 Safari/537.36" version="24.7.5">
  <diagram name="Page-1" id="2_XF2RB7scuO3lw8oAll">
    <mxGraphModel dx="1877" dy="1790" grid="1" gridSize="10" guides="1" tooltips="1" connect="1" arrows="1" fold="1" page="1" pageScale="1" pageWidth="827" pageHeight="1169" math="0" shadow="0">
      <root>
        <mxCell id="0" />
        <mxCell id="1" parent="0" />
        <mxCell id="Qljt_7Zh2HQgQvJq01WI-1" value="internal_db" style="shape=cylinder3;whiteSpace=wrap;html=1;boundedLbl=1;backgroundOutline=1;size=15;" parent="1" vertex="1">
          <mxGeometry x="50" y="195" width="60" height="80" as="geometry" />
        </mxCell>
        <mxCell id="Qljt_7Zh2HQgQvJq01WI-2" value="users_db" style="shape=cylinder3;whiteSpace=wrap;html=1;boundedLbl=1;backgroundOutline=1;size=15;" parent="1" vertex="1">
          <mxGeometry x="280" y="130" width="60" height="80" as="geometry" />
        </mxCell>
        <mxCell id="Qljt_7Zh2HQgQvJq01WI-23" style="edgeStyle=orthogonalEdgeStyle;rounded=0;orthogonalLoop=1;jettySize=auto;html=1;entryX=0.5;entryY=1;entryDx=0;entryDy=0;exitX=0;exitY=0.5;exitDx=0;exitDy=0;" parent="1" source="Qljt_7Zh2HQgQvJq01WI-3" target="Qljt_7Zh2HQgQvJq01WI-4" edge="1">
          <mxGeometry relative="1" as="geometry">
            <Array as="points">
              <mxPoint x="240" y="450" />
            </Array>
          </mxGeometry>
        </mxCell>
        <mxCell id="Qljt_7Zh2HQgQvJq01WI-27" style="edgeStyle=orthogonalEdgeStyle;rounded=0;orthogonalLoop=1;jettySize=auto;html=1;entryX=0.5;entryY=1;entryDx=0;entryDy=0;" parent="1" source="Qljt_7Zh2HQgQvJq01WI-3" target="Qljt_7Zh2HQgQvJq01WI-5" edge="1">
          <mxGeometry relative="1" as="geometry" />
        </mxCell>
        <mxCell id="Qljt_7Zh2HQgQvJq01WI-29" style="edgeStyle=orthogonalEdgeStyle;rounded=0;orthogonalLoop=1;jettySize=auto;html=1;entryX=0.5;entryY=1;entryDx=0;entryDy=0;" parent="1" source="Qljt_7Zh2HQgQvJq01WI-3" target="Qljt_7Zh2HQgQvJq01WI-13" edge="1">
          <mxGeometry relative="1" as="geometry" />
        </mxCell>
        <mxCell id="Qljt_7Zh2HQgQvJq01WI-3" value="API&lt;br&gt;Gateway&lt;div&gt;:5000&lt;/div&gt;" style="rhombus;whiteSpace=wrap;html=1;" parent="1" vertex="1">
          <mxGeometry x="330" y="410" width="80" height="80" as="geometry" />
        </mxCell>
        <mxCell id="Qljt_7Zh2HQgQvJq01WI-4" value="API&lt;div&gt;Private&lt;/div&gt;&lt;div&gt;:5555&lt;/div&gt;" style="rhombus;whiteSpace=wrap;html=1;" parent="1" vertex="1">
          <mxGeometry x="200" y="340" width="80" height="80" as="geometry" />
        </mxCell>
        <mxCell id="Qljt_7Zh2HQgQvJq01WI-5" value="API&lt;div&gt;Public&lt;/div&gt;&lt;div&gt;:5050&lt;/div&gt;" style="rhombus;whiteSpace=wrap;html=1;" parent="1" vertex="1">
          <mxGeometry x="450" y="290" width="80" height="80" as="geometry" />
        </mxCell>
        <mxCell id="Qljt_7Zh2HQgQvJq01WI-21" style="edgeStyle=orthogonalEdgeStyle;rounded=0;orthogonalLoop=1;jettySize=auto;html=1;entryX=0.5;entryY=1;entryDx=0;entryDy=0;" parent="1" source="Qljt_7Zh2HQgQvJq01WI-12" target="Qljt_7Zh2HQgQvJq01WI-3" edge="1">
          <mxGeometry relative="1" as="geometry" />
        </mxCell>
        <mxCell id="Qljt_7Zh2HQgQvJq01WI-12" value="Site Web&lt;br&gt;(React)" style="rounded=1;whiteSpace=wrap;html=1;" parent="1" vertex="1">
          <mxGeometry x="310" y="540" width="120" height="60" as="geometry" />
        </mxCell>
        <mxCell id="Qljt_7Zh2HQgQvJq01WI-13" value="ToDoApp&lt;div&gt;Generator&lt;/div&gt;&lt;div&gt;:3000&lt;/div&gt;" style="rhombus;whiteSpace=wrap;html=1;dashed=1;" parent="1" vertex="1">
          <mxGeometry x="40" y="340" width="80" height="80" as="geometry" />
        </mxCell>
        <mxCell id="Qljt_7Zh2HQgQvJq01WI-16" value="&lt;h1 style=&quot;margin-top: 0px;&quot;&gt;Intern. Logic&lt;/h1&gt;&lt;p&gt;Databsae storing all the mecanical logs and stats (All tech logs, visits, stats...)&lt;/p&gt;" style="text;html=1;whiteSpace=wrap;overflow=hidden;rounded=0;" parent="1" vertex="1">
          <mxGeometry x="10" y="60" width="156" height="110" as="geometry" />
        </mxCell>
        <mxCell id="Qljt_7Zh2HQgQvJq01WI-18" value="&lt;h1 style=&quot;margin-top: 0px;&quot;&gt;User. Logic&lt;/h1&gt;&lt;p&gt;Database storing the &quot;authentication shell&quot;, everything must stay private&lt;/p&gt;" style="text;html=1;whiteSpace=wrap;overflow=hidden;rounded=0;" parent="1" vertex="1">
          <mxGeometry x="232" y="10" width="156" height="110" as="geometry" />
        </mxCell>
        <mxCell id="Qljt_7Zh2HQgQvJq01WI-19" value="Redis&lt;div&gt;(Cache Session)&lt;/div&gt;" style="shape=cylinder3;whiteSpace=wrap;html=1;boundedLbl=1;backgroundOutline=1;size=15;" parent="1" vertex="1">
          <mxGeometry x="200" y="180" width="60" height="80" as="geometry" />
        </mxCell>
        <mxCell id="Qljt_7Zh2HQgQvJq01WI-25" style="edgeStyle=orthogonalEdgeStyle;rounded=0;orthogonalLoop=1;jettySize=auto;html=1;entryX=0.5;entryY=1;entryDx=0;entryDy=0;entryPerimeter=0;" parent="1" source="Qljt_7Zh2HQgQvJq01WI-4" target="Qljt_7Zh2HQgQvJq01WI-19" edge="1">
          <mxGeometry relative="1" as="geometry" />
        </mxCell>
        <mxCell id="Qljt_7Zh2HQgQvJq01WI-31" value="config_db" style="shape=cylinder3;whiteSpace=wrap;html=1;boundedLbl=1;backgroundOutline=1;size=15;" parent="1" vertex="1">
          <mxGeometry x="460" y="130" width="60" height="80" as="geometry" />
        </mxCell>
        <mxCell id="Qljt_7Zh2HQgQvJq01WI-32" value="&lt;h1 style=&quot;margin-top: 0px;&quot;&gt;Config. Logic&lt;/h1&gt;&lt;p&gt;Database storing the values for&amp;nbsp; the IHM, can publicy GET, and privatly PUT/DEL&lt;/p&gt;" style="text;html=1;whiteSpace=wrap;overflow=hidden;rounded=0;" parent="1" vertex="1">
          <mxGeometry x="426" y="10" width="156" height="110" as="geometry" />
        </mxCell>
        <mxCell id="Qljt_7Zh2HQgQvJq01WI-33" style="edgeStyle=orthogonalEdgeStyle;rounded=0;orthogonalLoop=1;jettySize=auto;html=1;entryX=0.5;entryY=1;entryDx=0;entryDy=0;entryPerimeter=0;" parent="1" source="Qljt_7Zh2HQgQvJq01WI-4" target="Qljt_7Zh2HQgQvJq01WI-2" edge="1">
          <mxGeometry relative="1" as="geometry">
            <Array as="points">
              <mxPoint x="240" y="300" />
              <mxPoint x="310" y="300" />
            </Array>
          </mxGeometry>
        </mxCell>
        <mxCell id="Qljt_7Zh2HQgQvJq01WI-41" value="Authentifications&lt;br&gt;actions" style="edgeLabel;html=1;align=center;verticalAlign=middle;resizable=0;points=[];" parent="Qljt_7Zh2HQgQvJq01WI-33" vertex="1" connectable="0">
          <mxGeometry x="0.5775" y="1" relative="1" as="geometry">
            <mxPoint as="offset" />
          </mxGeometry>
        </mxCell>
        <mxCell id="Qljt_7Zh2HQgQvJq01WI-34" style="edgeStyle=orthogonalEdgeStyle;rounded=0;orthogonalLoop=1;jettySize=auto;html=1;entryX=0.5;entryY=1;entryDx=0;entryDy=0;entryPerimeter=0;" parent="1" source="Qljt_7Zh2HQgQvJq01WI-5" target="Qljt_7Zh2HQgQvJq01WI-31" edge="1">
          <mxGeometry relative="1" as="geometry" />
        </mxCell>
        <mxCell id="Qljt_7Zh2HQgQvJq01WI-37" value="fetch static available parameters" style="edgeLabel;html=1;align=center;verticalAlign=middle;resizable=0;points=[];" parent="Qljt_7Zh2HQgQvJq01WI-34" vertex="1" connectable="0">
          <mxGeometry x="0.0062" relative="1" as="geometry">
            <mxPoint as="offset" />
          </mxGeometry>
        </mxCell>
        <mxCell id="Qljt_7Zh2HQgQvJq01WI-36" style="edgeStyle=orthogonalEdgeStyle;rounded=0;orthogonalLoop=1;jettySize=auto;html=1;entryX=0.5;entryY=1;entryDx=0;entryDy=0;entryPerimeter=0;" parent="1" source="Qljt_7Zh2HQgQvJq01WI-13" target="Qljt_7Zh2HQgQvJq01WI-1" edge="1">
          <mxGeometry relative="1" as="geometry" />
        </mxCell>
        <mxCell id="Qljt_7Zh2HQgQvJq01WI-39" value="Log time &lt;br&gt;elapsed" style="edgeLabel;html=1;align=center;verticalAlign=middle;resizable=0;points=[];" parent="Qljt_7Zh2HQgQvJq01WI-36" vertex="1" connectable="0">
          <mxGeometry x="-0.2231" y="1" relative="1" as="geometry">
            <mxPoint x="-19" as="offset" />
          </mxGeometry>
        </mxCell>
        <mxCell id="Qljt_7Zh2HQgQvJq01WI-38" style="edgeStyle=orthogonalEdgeStyle;rounded=0;orthogonalLoop=1;jettySize=auto;html=1;entryX=0.5;entryY=1;entryDx=0;entryDy=0;entryPerimeter=0;" parent="1" source="Qljt_7Zh2HQgQvJq01WI-4" target="Qljt_7Zh2HQgQvJq01WI-1" edge="1">
          <mxGeometry relative="1" as="geometry">
            <Array as="points">
              <mxPoint x="240" y="330" />
              <mxPoint x="100" y="330" />
              <mxPoint x="100" y="275" />
            </Array>
          </mxGeometry>
        </mxCell>
        <mxCell id="Qljt_7Zh2HQgQvJq01WI-40" value="Logs user actions" style="edgeLabel;html=1;align=center;verticalAlign=middle;resizable=0;points=[];" parent="Qljt_7Zh2HQgQvJq01WI-38" vertex="1" connectable="0">
          <mxGeometry x="-0.1444" relative="1" as="geometry">
            <mxPoint as="offset" />
          </mxGeometry>
        </mxCell>
        <mxCell id="Qljt_7Zh2HQgQvJq01WI-43" style="edgeStyle=orthogonalEdgeStyle;rounded=0;orthogonalLoop=1;jettySize=auto;html=1;entryX=1;entryY=1;entryDx=0;entryDy=0;" parent="1" target="Qljt_7Zh2HQgQvJq01WI-3" edge="1">
          <mxGeometry relative="1" as="geometry">
            <mxPoint x="595" y="530" as="sourcePoint" />
            <mxPoint x="385" y="480" as="targetPoint" />
            <Array as="points">
              <mxPoint x="595" y="500" />
              <mxPoint x="410" y="500" />
              <mxPoint x="410" y="470" />
            </Array>
          </mxGeometry>
        </mxCell>
        <mxCell id="Qljt_7Zh2HQgQvJq01WI-44" value="Can be able to update config_db" style="edgeLabel;html=1;align=center;verticalAlign=middle;resizable=0;points=[];" parent="Qljt_7Zh2HQgQvJq01WI-43" vertex="1" connectable="0">
          <mxGeometry x="-0.0769" y="-3" relative="1" as="geometry">
            <mxPoint x="-10" as="offset" />
          </mxGeometry>
        </mxCell>
        <mxCell id="Qljt_7Zh2HQgQvJq01WI-42" value="BackOffice" style="rounded=1;whiteSpace=wrap;html=1;dashed=1;" parent="1" vertex="1">
          <mxGeometry x="520" y="540" width="120" height="60" as="geometry" />
        </mxCell>
        <mxCell id="Qljt_7Zh2HQgQvJq01WI-45" value="Grafana" style="shape=parallelogram;perimeter=parallelogramPerimeter;whiteSpace=wrap;html=1;fixedSize=1;dashed=1;dashPattern=8 8;" parent="1" vertex="1">
          <mxGeometry x="-150" y="330" width="120" height="60" as="geometry" />
        </mxCell>
        <mxCell id="Qljt_7Zh2HQgQvJq01WI-46" style="edgeStyle=orthogonalEdgeStyle;rounded=0;orthogonalLoop=1;jettySize=auto;html=1;entryX=0;entryY=0.5;entryDx=0;entryDy=0;entryPerimeter=0;" parent="1" source="Qljt_7Zh2HQgQvJq01WI-45" target="Qljt_7Zh2HQgQvJq01WI-1" edge="1">
          <mxGeometry relative="1" as="geometry" />
        </mxCell>
        <mxCell id="Qljt_7Zh2HQgQvJq01WI-47" value="" style="swimlane;startSize=0;fillColor=#1ba1e2;fontColor=#ffffff;strokeColor=#006EAF;" parent="1" vertex="1">
          <mxGeometry x="-190" y="-30" width="910" height="670" as="geometry" />
        </mxCell>
        <mxCell id="Qljt_7Zh2HQgQvJq01WI-48" value="Every services is under docker management, and can be easily deployed under a single docker-compose or many sub-machines for security purposes" style="text;html=1;align=center;verticalAlign=middle;whiteSpace=wrap;rounded=0;" parent="Qljt_7Zh2HQgQvJq01WI-47" vertex="1">
          <mxGeometry y="640" width="840" height="30" as="geometry" />
        </mxCell>
        <mxCell id="b2KejczOVdnAqZ6PvvJm-1" value="&lt;h1 style=&quot;margin-top: 0px;&quot;&gt;Gateway&lt;/h1&gt;&lt;p&gt;La gateway permet de faire le pont entre l&#39;API Private (gestion des ressources authentifiées) et de l&#39;API Public (Ressources non authentifiées)&lt;/p&gt;" style="text;html=1;whiteSpace=wrap;overflow=hidden;rounded=0;" vertex="1" parent="Qljt_7Zh2HQgQvJq01WI-47">
          <mxGeometry x="270" y="500" width="180" height="120" as="geometry" />
        </mxCell>
        <mxCell id="b2KejczOVdnAqZ6PvvJm-7" value="" style="endArrow=none;dashed=1;html=1;dashPattern=1 3;strokeWidth=2;rounded=0;" edge="1" parent="Qljt_7Zh2HQgQvJq01WI-47" target="b2KejczOVdnAqZ6PvvJm-8">
          <mxGeometry width="50" height="50" relative="1" as="geometry">
            <mxPoint x="50" y="520" as="sourcePoint" />
            <mxPoint x="100" y="470" as="targetPoint" />
          </mxGeometry>
        </mxCell>
        <mxCell id="b2KejczOVdnAqZ6PvvJm-8" value="Doesn&#39;t exist yet" style="text;html=1;align=center;verticalAlign=middle;whiteSpace=wrap;rounded=0;" vertex="1" parent="Qljt_7Zh2HQgQvJq01WI-47">
          <mxGeometry x="90" y="500" width="60" height="30" as="geometry" />
        </mxCell>
        <mxCell id="b2KejczOVdnAqZ6PvvJm-4" value="" style="endArrow=none;dashed=1;html=1;dashPattern=1 3;strokeWidth=2;rounded=0;" edge="1" parent="1">
          <mxGeometry width="50" height="50" relative="1" as="geometry">
            <mxPoint x="230" y="390" as="sourcePoint" />
            <mxPoint x="280" y="340" as="targetPoint" />
          </mxGeometry>
        </mxCell>
        <mxCell id="b2KejczOVdnAqZ6PvvJm-5" value="" style="endArrow=none;dashed=1;html=1;dashPattern=1 3;strokeWidth=2;rounded=0;" edge="1" parent="1">
          <mxGeometry width="50" height="50" relative="1" as="geometry">
            <mxPoint x="230" y="390" as="sourcePoint" />
            <mxPoint x="280" y="340" as="targetPoint" />
          </mxGeometry>
        </mxCell>
        <mxCell id="b2KejczOVdnAqZ6PvvJm-6" value="" style="endArrow=none;dashed=1;html=1;dashPattern=1 3;strokeWidth=2;rounded=0;" edge="1" parent="1">
          <mxGeometry width="50" height="50" relative="1" as="geometry">
            <mxPoint x="230" y="390" as="sourcePoint" />
            <mxPoint x="280" y="340" as="targetPoint" />
          </mxGeometry>
        </mxCell>
      </root>
    </mxGraphModel>
  </diagram>
</mxfile>
